<?xml version="1.0" standalone="yes"?>

<svg version="1.1" viewBox="0.0 0.0 60.0 50.0" fill="none" stroke="none" stroke-linecap="square" stroke-miterlimit="10" xmlns="http://www.w3.org/2000/svg" xmlns:xlink="http://www.w3.org/1999/xlink"><clipPath id="p.0"><path d="m0 0l60.0 0l0 50.0l-60.0 0l0 -50.0z" clip-rule="nonzero"></path></clipPath><g clip-path="url(#p.0)"><path fill="#000000" fill-opacity="0.0" d="m0 0l60.0 0l0 50.0l-60.0 0z" fill-rule="evenodd"></path><path fill="#000000" fill-opacity="0.0" d="m0 0l60.0 0l0 49.19685l-60.0 0z" fill-rule="evenodd"></path><path fill="#000000" d="m4.7294617 27.27655l0 -3.234375q0.96875 -0.046875 1.265625 -0.3125q0.3125 -0.265625 0.515625 -0.71875q0.203125 -0.453125 0.265625 -1.015625q0.078125 -0.578125 0.078125 -1.09375l0 -4.203125q0 -1.359375 0.296875 -2.140625q0.3125 -0.78125 0.875 -1.15625q0.578125 -0.390625 1.234375 -0.40625q0.671875 -0.03125 1.328125 -0.03125l2.25 0l0 3.28125l-1.734375 0q-0.296875 0 -0.421875 0.0625q-0.125 0.046875 -0.21875 0.21875q-0.09375 0.171875 -0.15625 0.65625q-0.0625 0.46875 -0.0625 1.296875l0 3.484375q0 0.90625 -0.203125 1.59375q-0.1875 0.671875 -0.5 1.171875q-0.3125 0.484375 -0.65625 0.828125q-0.34375 0.328125 -0.578125 0.046875q0.234375 -0.28125 0.578125 0.0625q0.359375 0.328125 0.65625 0.84375q0.3125 0.5 0.5 1.171875q0.203125 0.65625 0.203125 1.546875l0 3.484375q0 0.828125 0.0625 1.3125q0.0625 0.484375 0.15625 0.640625q0.09375 0.171875 0.21875 0.21875q0.125 0.0625 0.421875 0.0625l1.734375 0l0 3.265625l-2.25 0q-0.625 0 -1.296875 -0.03125q-0.65625 -0.015625 -1.234375 -0.390625q-0.578125 -0.359375 -0.890625 -1.140625q-0.3125 -0.78125 -0.3125 -2.15625l0 -4.109375q0 -0.515625 -0.078125 -1.078125q-0.0625 -0.578125 -0.265625 -1.03125q-0.203125 -0.453125 -0.5 -0.703125q-0.296875 -0.265625 -1.28125 -0.296875zm8.654968 3.6875l1.515625 0l0 -13.53125l-1.515625 0l0 -3.234375l14.25 0l0 5.265625l-3.21875 0l0 -2.03125l-6.171875 0l0 5.09375l8.34375 0l0 3.21875l-8.34375 0l0 5.21875l6.546875 0l0 -2.015625l3.21875 0l0 5.25l-14.625 0l0 -3.234375zm15.173782 -5.46875q0 -0.859375 0.59375 -1.40625q0.59375 -0.5625 1.359375 -0.5625q0.734375 0 1.328125 0.5625q0.59375 0.546875 0.59375 1.40625q0 0.859375 -0.59375 1.40625q-0.59375 0.546875 -1.328125 0.546875q-0.765625 0 -1.359375 -0.546875q-0.59375 -0.546875 -0.59375 -1.40625zm0 6.75q0 -0.859375 0.59375 -1.40625q0.59375 -0.5625 1.359375 -0.5625q0.734375 0 1.328125 0.5625q0.59375 0.546875 0.59375 1.40625q0 0.859375 -0.59375 1.40625q-0.59375 0.546875 -1.328125 0.546875q-0.765625 0 -1.359375 -0.546875q-0.59375 -0.546875 -0.59375 -1.40625zm4.7117004 -1.28125l1.515625 0l0 -13.53125l-1.515625 0l0 -3.234375l7.09375 0l0 3.234375l-2.234375 0l0 13.53125l6.546875 0l0 -2.015625l3.21875 0l0 5.25l-14.625 0l0 -3.234375zm23.205032 -6.921875l0 3.234375q-0.984375 0.03125 -1.28125 0.296875q-0.296875 0.25 -0.484375 0.703125q-0.1875 0.4375 -0.28125 1.03125q-0.078125 0.578125 -0.078125 1.078125l0 4.109375q0 1.375 -0.3125 2.140625q-0.3125 0.78125 -0.890625 1.15625q-0.5625 0.375 -1.21875 0.390625q-0.65625 0.03125 -1.3125 0.03125l-2.25 0l0 -3.265625l1.734375 0q0.296875 0 0.421875 -0.0625q0.125 -0.046875 0.21875 -0.21875q0.09375 -0.15625 0.15625 -0.640625q0.0625 -0.484375 0.0625 -1.3125l0 -3.484375q0 -0.890625 0.1875 -1.5625q0.203125 -0.6875 0.515625 -1.171875q0.3125 -0.5 0.65625 -0.828125q0.34375 -0.34375 0.59375 -0.0625q-0.25 0.28125 -0.609375 -0.046875q-0.359375 -0.34375 -0.65625 -0.828125q-0.296875 -0.5 -0.5 -1.171875q-0.1875 -0.6875 -0.1875 -1.59375l0 -3.484375q0 -0.828125 -0.0625 -1.296875q-0.0625 -0.484375 -0.15625 -0.65625q-0.09375 -0.171875 -0.21875 -0.21875q-0.125 -0.0625 -0.421875 -0.0625l-1.734375 0l0 -3.28125l2.25 0q0.625 0 1.28125 0.03125q0.671875 0.015625 1.25 0.40625q0.578125 0.375 0.890625 1.15625q0.3125 0.765625 0.3125 2.140625l0 4.203125q0 0.5 0.078125 1.09375q0.09375 0.578125 0.28125 1.03125q0.1875 0.4375 0.484375 0.703125q0.3125 0.265625 1.28125 0.3125z" fill-rule="nonzero"></path></g></svg>

